<svg width="43" height="43" viewBox="0 0 43 43" fill="none" xmlns="http://www.w3.org/2000/svg">
<path fill-rule="evenodd" clip-rule="evenodd" d="M28.184 38.109C29.2879 37.6893 31.0106 36.7675 32.2573 35.9296C33.7487 34.927 35.798 33.0148 36.8185 31.6734C38.6515 29.264 39.6104 26.8135 40.1614 23.1299C40.532 20.6529 40.5583 20.024 40.5925 12.8345C40.6289 5.18829 40.662 5.66823 40.0562 5.06242C39.4715 4.47774 39.8174 4.50402 32.6966 4.50402C25.819 4.50402 26.0598 4.48999 25.4916 4.92342C25.3465 5.03406 25.1371 5.27892 25.0262 5.46749L24.9616 5.5773C24.8719 5.72999 24.8243 5.90377 24.8238 6.08088L24.8044 12.325L24.7847 18.632C24.7843 18.7689 24.812 18.9045 24.8661 19.0303L24.9454 19.2146C25.1348 19.6548 25.6546 20.1454 26.0472 20.2545C26.2081 20.2991 27.5493 20.3297 29.3598 20.33L31.9324 20.3303C32.1917 20.3304 32.4019 20.5406 32.4019 20.7998C32.4019 21.8686 32.0971 23.6825 31.7156 24.8842C31.2085 26.4819 30.4348 27.7702 29.3139 28.8827C28.3995 29.7904 27.3406 30.5113 25.8521 31.2396C24.7637 31.7721 24.6004 31.9042 24.3014 32.4948C24.2221 32.6512 24.1694 32.9299 24.1668 33.2055C24.163 33.6043 24.2127 33.7663 24.5804 34.5533C25.9795 37.5477 26.094 37.7376 26.6784 38.0358C27.107 38.2545 27.7225 38.2843 28.184 38.109ZM6.10825 38.1637C6.52197 38.0873 8.46735 37.1353 9.52077 36.4938C12.7167 34.5474 15.2113 31.9397 16.6712 29.0195C17.7386 26.8842 18.2674 24.7272 18.6398 20.9881C18.7388 19.9945 18.7671 18.5088 18.7938 12.9098C18.8308 5.17963 18.8642 5.66913 18.2575 5.06242C17.6729 4.47782 18.0184 4.50402 10.9019 4.50402C3.96534 4.50402 4.20848 4.48894 3.64441 4.95388C3.49645 5.07586 3.28839 5.35028 3.18201 5.56371L3.09367 5.741C3.02461 5.87961 2.98868 6.03237 2.98872 6.18723L2.9903 12.4132C2.99194 18.7522 2.99486 18.881 3.14401 19.2106C3.31877 19.5968 3.58536 19.8976 3.95914 20.1303C4.21438 20.2893 4.29456 20.294 7.42945 20.3304L10.0409 20.3608C10.3683 20.3646 10.6282 20.6377 10.6157 20.965C10.5568 22.5075 10.1844 24.3433 9.66725 25.6402C9.13549 26.9736 8.49863 27.9463 7.53217 28.9009C6.65262 29.7697 5.75462 30.3888 4.34502 31.098C2.99373 31.7779 2.61606 32.0912 2.4631 32.6592C2.28206 33.3314 2.3774 33.6701 3.26838 35.5222C3.76564 36.5559 4.20691 37.3698 4.37712 37.5671C4.80951 38.0686 5.44227 38.2866 6.10825 38.1637Z" fill="#CCEAEC" fill-opacity="0.39"/>
</svg>
